<?xml version="1.0" encoding="UTF-8" standalone="no"?>
<svg
   fill="#ffd1d4"
   viewBox="0 0 84.1113358 100"
   version="1.1"
   id="svg7"
   sodipodi:docname="carte-de-la-france.svg"
   inkscape:version="1.3.2 (1:1.3.2+202311252150+091e20ef0f)"
   xmlns:inkscape="http://www.inkscape.org/namespaces/inkscape"
   xmlns:sodipodi="http://sodipodi.sourceforge.net/DTD/sodipodi-0.dtd"
   xmlns="http://www.w3.org/2000/svg"
   xmlns:svg="http://www.w3.org/2000/svg">
  <defs
     id="defs7" />
  <sodipodi:namedview
     id="namedview7"
     pagecolor="#ffffff"
     bordercolor="#666666"
     borderopacity="1.0"
     inkscape:showpageshadow="2"
     inkscape:pageopacity="0.0"
     inkscape:pagecheckerboard="0"
     inkscape:deskcolor="#d1d1d1"
     inkscape:zoom="7.03"
     inkscape:cx="42.034139"
     inkscape:cy="51.70697"
     inkscape:window-width="1920"
     inkscape:window-height="945"
     inkscape:window-x="0"
     inkscape:window-y="0"
     inkscape:window-maximized="1"
     inkscape:current-layer="svg7" />
  <path
     d="M38.7045021,89.0258942c0.0553169-0.6081772-0.5528564-0.9400711-1.1610298-0.7187042 c-0.5528603,0.1658478-1.1057167,0.6081696-0.7740211,1.2163467c0.4423256,0.774025,0.7187042,1.3821945-0.1105347,2.1008987 c-0.4423256,0.3870163-1.4374123,0.8293381-0.6629944,1.7692108c0.5528603,0.6629944,1.3268814,1.1057129,2.1562195,0.7187042 c1.1057167-0.5528564,2.543129-0.1658478,3.6489449-1.3268814C40.3078613,91.8454971,38.4833412,91.2926407,38.7045021,89.0258942z"
     id="path1"
     style="stroke:#000000;stroke-opacity:1;fill:none;stroke-width:0.5;stroke-dasharray:none" />
  <path
     d="M33.362175,91.3698883c-0.9951859-0.6081772-2.1009007-0.774025-2.2114334,0.7740173 c-0.1105328,1.8244247-0.3870106,3.7041626,0.4975433,5.418045c0.3316936,0.6081772,0.3870087,1.8244247,1.6030579,1.4374161 c0.8845558-0.2764816,1.658577-0.8293381,1.7138901-1.8801346v-2.1004028 C35.1865959,93.7471619,34.9102135,92.2544403,33.362175,91.3698883z"
     id="path2"
     style="stroke:#000000;stroke-opacity:1;fill:none;stroke-width:0.5;stroke-dasharray:none" />
  <path
     d="M17.2932491,93.7977066c-0.0553169-1.8801346-2.8749247-4.7546616-4.5888157-4.6440277 c-1.713891,0.1106262-2.8196077,1.1610336-2.8196077,2.7642899c0,2.2114334,2.7642927,4.2018051,5.6945314,4.0911713 C17.0720844,96.2857208,17.2932491,95.0692749,17.2932491,93.7977066z"
     id="path3"
     style="stroke:#000000;stroke-opacity:1;fill:none;stroke-width:0.5;stroke-dasharray:none" />
  <path
     d="m 70.883804,42.502312 c 2.377281,-2.543133 4.92051,-4.865193 6.136757,-8.237664 h 0.331696 c 0.331695,0.608174 0.608169,1.161034 1.437408,0.829338 0.88456,-0.387008 0.940071,-1.105716 1.105721,-1.935051 0.829338,-3.87001 1.437416,-7.906459 3.814796,-11.223115 0.940064,-1.32688 0.05532,-1.658576 -0.88456,-1.769207 -5.031036,-0.608174 -9.288154,-3.648945 -14.208671,-4.533498 -0.02287,-0.125933 -0.143509,-0.209476 -0.26944,-0.186598 -0.02163,0.0039 -0.04259,0.01092 -0.06225,0.02075 v 0 C 65.299803,14.74856 62.53541,13.753375 61.982553,9.9385824 61.097997,10.601577 60.158129,10.87865 59.162943,10.712604 v 0 C 58.886467,10.270279 58.554771,9.8832684 58.278389,9.441041 v 0 C 58.167858,8.6670189 58.223072,7.782465 57.062042,7.6718345 54.905826,7.3953557 53.855419,5.6262479 52.638779,4.1335206 52.196453,3.5806618 52.085922,2.6407928 51.090736,3.0278034 49.54269,3.6907983 48.989834,2.5302605 48.27113,1.5903911 48.105282,-1.1186848 46.557236,0.4293587 45.451523,0.5399898 c -1.54755,-0.1663448 -2.70858,0.1657463 -3.040276,1.9348539 -0.442329,2.1009019 -0.940067,4.201804 -1.437412,6.302706 -0.497547,0 -0.940067,0.055315 -1.10572,0.6081734 v 0 c -1.271565,0.4975433 -2.543129,0.9951849 -3.814793,1.4374119 -0.940067,0.331696 -1.990269,0.276479 -2.432598,1.492728 -0.49754,1.326881 1.824425,0.387011 1.21635,1.935055 -1.382194,-0.110533 -2.709079,0.331695 -3.925327,1.105716 h -0.884552 c -1.326879,-0.774023 -2.764292,-0.829337 -4.201805,-0.995186 -1.161032,-0.165846 -2.100901,-0.497543 -1.990271,-1.713891 0.165848,-2.322064 -1.492729,-1.769206 -2.487913,-1.492727 -1.492727,0.387011 -0.662994,1.548042 -0.38701,2.432596 0.995186,2.819608 0.884554,5.5839 0.165848,8.403508 v 0 C 20.185976,21.493391 19.301621,21.10638 18.140589,20.995748 15.87384,20.719269 12.943698,21.825087 11.616819,18.618467 11.229807,17.6784 9.6817646,17.6784 9.1289062,18.176142 c -2.1562176,1.99027 -4.699347,0.829336 -7.0214119,1.050401 -0.8847483,0.110732 -2.2116284,-0.110431 -2.1009973,1.106213 0.1105321,1.326879 1.4927278,0.387011 2.2114339,0.662994 -0.055315,0.442328 -0.110532,0.829337 -0.6629946,0.995186 -0.3870109,0.110533 -1.2715647,-0.276479 -0.9951849,0.662995 0.1105322,0.442325 0.7187061,0.442325 1.1610324,0.442325 v 0 c 0.5528586,0.497544 0.6081741,0.884554 -0.1658475,1.161034 -0.5528585,0.165848 -1.1610324,0.331695 -0.7187061,1.050402 0.3316953,0.552858 0.4423263,1.658575 1.3821957,1.43741 2.65376,-0.608173 4.3123355,1.382194 6.4685535,2.156219 1.9902706,0.662995 3.4831966,2.37728 5.6945316,2.598444 v 0 c -0.165847,0.884554 -1.824423,2.543131 1.050402,1.880137 0.774022,-0.165848 1.658575,0.05531 2.432597,0.608173 -0.608174,0.552857 -1.935053,0.387009 -1.769205,0.552857 1.216346,1.492729 -0.940068,2.709079 -0.27648,3.87001 1.271564,2.15622 2.377281,4.588814 5.19689,5.252205 v 0.442326 0 c -0.884554,1.437412 1.326879,3.151306 -0.27648,4.478183 -1.548042,1.271569 -1.161032,2.100907 0.27648,3.096093 0.552858,0.387008 0.829336,1.216346 1.216346,1.824421 -0.165845,0.718708 0.27648,1.603065 -0.552858,2.211437 v 0 c -0.331696,-0.884556 -0.552858,-1.935055 -1.880135,-2.598442 -0.497543,2.930141 -1.216346,5.639213 -0.442325,8.514141 -0.442328,0.110531 -0.940067,0.110531 -1.105717,0.608173 v 0 c -1.492729,3.538315 -0.995186,7.906464 -4.478185,10.615036 -0.276478,0.221161 0,0.387016 0.165848,0.608177 2.26675,2.819611 5.086259,4.809876 8.735303,5.473366 v 0 c 1.603062,1.713898 4.312334,2.432602 5.694533,1.492729 2.709075,-1.769203 4.146188,0.276482 6.136758,0.940071 1.880135,0.60817 2.930138,2.76429 4.588814,3.096093 2.543133,0.497543 5.307518,0.718704 7.740116,-0.276391 -0.497543,-2.100898 -1.271564,-4.5335 0.331696,-6.026321 2.045585,-1.935059 4.754661,-3.096092 7.18726,-4.533501 0.165851,-0.110534 0.608173,0.05531 0.718708,0.221161 0.774025,1.548043 1.658573,0.165848 2.487915,0.110527 -0.442322,1.437416 1.382198,1.603066 1.548042,1.603066 2.653759,-0.442322 4.699344,0.884559 6.855568,2.100906 3.206619,1.769203 6.026329,1.216347 8.458824,-1.769211 1.824425,-2.211433 4.975822,-3.151306 6.468552,-5.805061 0.662994,-0.497551 0.884559,-1.050507 -0.110535,-1.216347 -1.0504,-0.165855 -2.156212,-0.05532 -3.206124,-0.05532 -0.884559,-1.437416 -3.206123,-2.598442 -2.156219,-4.423264 1.824425,-3.151306 -1.0504,-3.925323 -2.266747,-5.528683 v 0 c 0.414917,-0.171974 0.839493,-0.319667 1.271569,-0.442321 2.98545,-0.774025 3.42778,-1.769211 1.880127,-4.367653 -0.387009,-0.608174 -1.382195,-1.382199 -0.940064,-1.824425 2.100907,-1.935051 -0.221161,-3.261932 -0.442322,-4.809879 -0.387016,-1.824421 -1.382202,-0.940064 -2.266746,-0.497544 v 0 c -0.88456,0.829339 -1.437416,2.266751 -3.040772,1.769207 -0.387016,-1.105716 2.377282,-2.26675 -0.276481,-2.985458 1.105011,-0.718216 0.718002,-2.376789 1.54734,-3.206127 z"
     id="path4"
     style="fill:none;fill-opacity:1;stroke:#000000;stroke-opacity:1;stroke-width:0.5;stroke-dasharray:none" />
  <path
     d="M61.865715,94.9692535c-0.4423256-0.3870087-1.0503998-0.4975433-1.1057167-1.3821945 c-0.2764778-2.8196106-2.543129-3.9253235-4.8098755-4.9205093c-0.9400673-0.3870087-1.8801346-0.0553207-2.0455856,1.1610336 c-0.2764816,1.7692032,2.2667465,5.4180527,4.0911713,5.6392136c0.8845558,0.1105347,1.1057167,0.4423294,1.3268814,1.0503998 c0.2211609,0.774025-0.3870125,0.8845596-0.9400673,0.8845596c-0.6629944,0-1.1057167,0.2211609-0.9400673,0.9400635 c0.1105309,0.7187042,0.7187042,0.6629944,1.2715645,0.6629944c1.658577,0,3.372467-0.2211609,5.0310402,0.9951859 C63.8007736,97.9547119,63.3584442,96.2961349,61.865715,94.9692535z"
     id="path5"
     style="fill:none;fill-opacity:1;stroke:#000000;stroke-opacity:1;stroke-width:0.5;stroke-dasharray:none" />
  <path
     d="M82.5810013,89.4960327c0.6081772-2.3772812,2.4326019-4.5888138,0.9400711-7.2977982 c0.0553131-0.8293381,0.3316956-1.658577-0.2211685-2.4879074c-1.0503998,0.5528564-0.6629944,1.6030579-0.9951859,2.3220596l0,0 c-3.8147888,0.8845596-4.6440277,2.1009064-3.7041626,5.8603821c0.2211685,0.8293381,0.8845596,1.5480499,0.8845596,2.3772888 c0.0553131,1.4374084,1.0503998,1.7138901,1.9902725,1.7138901c1.4927292,0,0.9400635-1.2163467,0.9951859-2.0455856 C82.6915359,89.7725143,82.6915359,89.6066666,82.5810013,89.4960327z"
     id="path6"
     style="stroke:#000000;stroke-opacity:1;fill:none;stroke-width:0.5;stroke-dasharray:none" />
  <path
     d="M41.3168945,97.0669327c-0.7740173,0.0553131-1.1610298,0.4975433-1.2715607,1.1610336 c-0.1105309,0.5528564,0.2764778,0.8845444,0.7740211,0.8845444c0.7187042,0,1.2162437-0.3870087,1.3268738-1.1057129 C42.1462326,97.5092545,41.8144379,97.2327805,41.3168945,97.0669327z"
     id="path7"
     style="stroke:#000000;stroke-opacity:1;fill:none;stroke-width:0.5;stroke-dasharray:none" />
</svg>
